<svg xmlns="http://www.w3.org/2000/svg" width="134" height="135" viewBox="0 0 134 135"><g transform="translate(0 0.351)" opacity="0.75"><g transform="translate(0 -0.351)" fill="#fff" stroke="#c20000" stroke-width="3"><ellipse cx="67" cy="67.5" rx="67" ry="67.5" stroke="none"/><ellipse cx="67" cy="67.5" rx="65.5" ry="66" fill="none"/></g><path d="M18.079,29.778H94.414L56.247,92.642h0ZM56.247,55.42,65.789,39.7H46.7Zm45.2-37.222h-90.4L0,0H22.6l5.022,8.272H84.872L89.894,0h22.6L101.445,18.2h0Z" transform="translate(10.753 39.369)" fill="#c20000"/><text transform="translate(29 66.649)" fill="#c20000" font-size="13" font-family="SegoeUI, Segoe UI"><tspan x="0" y="0">оптимум 86</tspan></text><g transform="translate(98.432 123.739) rotate(180)"><path d="M31.432,0,62.864,51.284H0Z" fill="none"/><path d="M31.432,1.583,1.477,50.457h59.91L31.432,1.583m0-1.583L62.864,51.284H0Z" fill="#fff"/></g><line y2="28" transform="translate(67 93.649)" fill="none" stroke="#fff" stroke-width="1"/><line x2="21.506" y2="6.617" transform="translate(36.809 72.869)" fill="none" stroke="#fff" stroke-linecap="round" stroke-width="1"/><line x1="21.506" y2="6.617" transform="translate(75.685 72.869)" fill="none" stroke="#fff" stroke-linecap="round" stroke-width="1"/><line x2="80" transform="translate(27 52.649)" fill="none" stroke="#fff" stroke-linecap="round" stroke-width="1"/><line x1="7" y1="13" transform="translate(20 39.649)" fill="none" stroke="#fff" stroke-linecap="round" stroke-width="1"/><line y1="13" x2="7" transform="translate(107 39.649)" fill="none" stroke="#fff" stroke-linecap="round" stroke-width="1"/><path d="M16.263,9.773,10.68,4.919-.425-.257" transform="translate(96.024 47.685)" fill="none" stroke="#fff" stroke-linecap="round" stroke-width="1"/><path d="M-.425,9.773,5.158,4.919l11.1-5.176" transform="translate(22.614 47.685)" fill="none" stroke="#fff" stroke-linecap="round" stroke-width="1"/><path d="M8.289,10.021H0V0H6.452l.232.586L6.347.731,7.808,4.172l.26-.11.222.558v5.4Z" transform="translate(76.838 31.983)" fill="#c20000"/><path d="M0,0H28.107l2.364,1.795h2.185L30.471,4.673H0Z" transform="translate(52.54 40.135)" fill="#4a4a4a"/><g transform="translate(75.64 42.003)" fill="#dbdbdb" stroke="#707070" stroke-width="1"><circle cx="2.803" cy="2.803" r="2.803" stroke="none"/><circle cx="2.803" cy="2.803" r="2.303" fill="none"/></g><path d="M1.506-4.691l2.245,1.8H20.343l1.577-2.327h5.707L24.81-2.464H23.4l-3.06,7.05H1.506L-1.856,2.919Z" transform="translate(50.659 36.037)" fill="#c20000"/><g transform="translate(53.211 42.003)" fill="#dbdbdb" stroke="#707070" stroke-width="1"><circle cx="2.803" cy="2.803" r="2.803" stroke="none"/><circle cx="2.803" cy="2.803" r="2.303" fill="none"/></g><g transform="translate(59.753 42.003)" fill="#dbdbdb" stroke="#707070" stroke-width="1"><circle cx="2.803" cy="2.803" r="2.803" stroke="none"/><circle cx="2.803" cy="2.803" r="2.303" fill="none"/></g><path d="M0,0H3.733L4.986,3.185H0Z" transform="translate(78.909 33.149)" fill="#fff"/></g></svg>