<svg xmlns="http://www.w3.org/2000/svg" xmlns:xlink="http://www.w3.org/1999/xlink" width="345.769" height="135" viewBox="0 0 345.769 135">
  <defs>
    <filter id="Контур_10" x="141.235" y="9.021" width="204.534" height="66.543" filterUnits="userSpaceOnUse">
      <feOffset dx="3" dy="3" input="SourceAlpha"/>
      <feGaussianBlur stdDeviation="1.5" result="blur"/>
      <feFlood flood-color="#636363" flood-opacity="0.161"/>
      <feComposite operator="in" in2="blur"/>
      <feComposite in="SourceGraphic"/>
    </filter>
  </defs>
  <g id="Logo" transform="translate(-535 -40)">
    <g transform="matrix(1, 0, 0, 1, 535, 40)" filter="url(#Контур_10)">
      <path id="Контур_10-2" data-name="Контур 10" d="M14.494-15.354,9.068,10.19q-1.445,6.788-2.793,9.237t-2.94,2.45a3.162,3.162,0,0,1-2.192-.791V16.748a2.828,2.828,0,0,0,2.033,1.3q.992,0,1.825-1.595a27.351,27.351,0,0,0,1.8-5.627L.85-15.354H3.189L7.4,4.193q.11.485.453,2.373H7.88q.037-.23.5-2.475L12.29-15.354ZM28.47,21.239H26.412V4.78q-2.8,3.088-5.218,3.088a3.889,3.889,0,0,1-3.558-2.488A15.774,15.774,0,0,1,16.381-1.6V-15.354h2.058V-1.8q0,5.895,3.013,5.895,2.18,0,4.961-2.807V-15.354H28.47Zm14.073,0H33.234V-15.354h8.917v3.879H35.292V.7h6.345V4.55H35.292V17.36h7.251Zm3.381,0V-15.354h9.382v3.879H47.982V.161h3.332A4.492,4.492,0,0,1,55.392,2.8a15.779,15.779,0,0,1,1.458,7.515A17.415,17.415,0,0,1,55.318,18.3q-1.531,2.935-4.177,2.935Zm2.058-17.2V17.36h2.891a3.087,3.087,0,0,0,2.817-1.786,10.4,10.4,0,0,0,.992-5q0-6.533-3.809-6.533Zm25.489,17.2H71.413V4.55H62.325V21.239H60.267V-15.354h2.058V.7h9.088V-15.354h2.058Zm19.634,0H91.047V-15.354H93.1Zm-15.029,0V-15.354h2.058V.161h3.332A4.492,4.492,0,0,1,87.544,2.8,15.779,15.779,0,0,1,89,10.317,17.415,17.415,0,0,1,87.471,18.3q-1.531,2.935-4.177,2.935Zm2.058-17.2V17.36h2.891a3.087,3.087,0,0,0,2.817-1.786,10.4,10.4,0,0,0,.992-5q0-6.533-3.809-6.533Zm31.748,17.2h-2.058V-5.2q0-3.572.122-5.027h-.073a19.432,19.432,0,0,1-.563,2.3L100.27,21.239H97.723V-15.354H99.78V10.419q0,4.134-.1,5.384h.049q.269-1.123.686-2.45l8.819-28.707h2.646Zm-2.6-47.718a12.646,12.646,0,0,1-1.39,5.678,3.5,3.5,0,0,1-3.019,2.08,3.453,3.453,0,0,1-3.031-2.08,12.418,12.418,0,0,1-1.28-5.678h1.984q.171,4.8,2.352,4.8.98,0,1.617-1.263a9.358,9.358,0,0,0,.784-3.534Zm29.653,57.543h-1.9V21.239H123.383V-15.354h2.058V17.36h9.088V-15.354h2.058V17.36h2.352Zm12.371-9.824H142V-15.354h8.917v3.879h-6.859V.7H150.4V4.55h-6.345V17.36h7.251Zm16.584,0h-2.058V4.55h-9.088V21.239H154.69V-15.354h2.058V.7h9.088V-15.354h2.058Zm14.992-32.714h-5.071V21.239h-2.058V-11.475H170.7v-3.879h12.187ZM187.7,7.408V21.239h-2.058V-15.354h4.826a4.79,4.79,0,0,1,4.367,2.858,17.155,17.155,0,0,1,1.549,8.064,18.468,18.468,0,0,1-1.721,8.523q-1.721,3.317-4.648,3.317Zm0-18.883v15h2.156A3.536,3.536,0,0,0,193.107,1.5a12,12,0,0,0,1.121-5.729q0-7.247-4.115-7.247Z" transform="translate(141.89 37)" fill="#6a6967"/>
    </g>
    <text id="оптимум86" transform="translate(677 153)" fill="#c20000" font-size="31" font-family="SegoeUI, Segoe UI"><tspan x="0" y="0">ОПТИМУМ</tspan><tspan y="0" font-family="NirmalaUI, Nirmala UI">86</tspan></text>
    <line id="Линия_8" data-name="Линия 8" x2="195.489" transform="translate(677.432 115.377)" fill="none" stroke="#707070" stroke-width="4"/>
    <g id="Logo-2" data-name="Logo" transform="translate(-256 -632)">
      <g id="Эллипс_6" data-name="Эллипс 6" transform="translate(791 672)" fill="#fff" stroke="#c20000" stroke-width="3">
        <ellipse cx="67" cy="67.5" rx="67" ry="67.5" stroke="none"/>
        <ellipse cx="67" cy="67.5" rx="65.5" ry="66" fill="none"/>
      </g>
      <path id="Контур_11" data-name="Контур 11" d="M18.079,29.778H94.414L56.247,92.642h0ZM56.247,55.42,65.789,39.7H46.7Zm45.2-37.222h-90.4L0,0H22.6l5.022,8.272H84.872L89.894,0h22.6L101.445,18.2h0Z" transform="translate(801.753 711.704)" fill="#c20000"/>
      <text id="оптимум_86" data-name="оптимум 86" transform="translate(820 739)" fill="#c20000" font-size="13" font-family="SegoeUI, Segoe UI"><tspan x="0" y="0">оптимум 86</tspan></text>
      <g id="Сгруппировать_6" data-name="Сгруппировать 6" transform="translate(889.432 796.074) rotate(180)">
        <path id="Контур_12" data-name="Контур 12" d="M31.432,0,62.864,51.284H0Z" fill="none"/>
        <path id="Контур_13" data-name="Контур 13" d="M31.432,1.583,1.477,50.457h59.91L31.432,1.583m0-1.583L62.864,51.284H0Z" fill="#fff"/>
      </g>
      <line id="Линия_9" data-name="Линия 9" y2="28" transform="translate(858 766)" fill="none" stroke="#fff" stroke-width="1"/>
      <line id="Линия_10" data-name="Линия 10" x2="21.506" y2="6.617" transform="translate(827.809 745.204)" fill="none" stroke="#fff" stroke-linecap="round" stroke-width="1"/>
      <line id="Линия_11" data-name="Линия 11" x1="21.506" y2="6.617" transform="translate(866.685 745.204)" fill="none" stroke="#fff" stroke-linecap="round" stroke-width="1"/>
      <line id="Линия_12" data-name="Линия 12" x2="80" transform="translate(818 725)" fill="none" stroke="#fff" stroke-linecap="round" stroke-width="1"/>
      <line id="Линия_13" data-name="Линия 13" x1="7" y1="13" transform="translate(811 712)" fill="none" stroke="#fff" stroke-linecap="round" stroke-width="1"/>
      <line id="Линия_14" data-name="Линия 14" y1="13" x2="7" transform="translate(898 712)" fill="none" stroke="#fff" stroke-linecap="round" stroke-width="1"/>
      <path id="Контур_14" data-name="Контур 14" d="M16.263,9.773,10.68,4.919-.425-.257" transform="translate(887.024 720.02)" fill="none" stroke="#fff" stroke-linecap="round" stroke-width="1"/>
      <path id="Контур_15" data-name="Контур 15" d="M-.425,9.773,5.158,4.919l11.1-5.176" transform="translate(813.614 720.02)" fill="none" stroke="#fff" stroke-linecap="round" stroke-width="1"/>
      <path id="Контур_16" data-name="Контур 16" d="M8.289,10.021H0V0H6.452l.232.586L6.347.731,7.808,4.172l.26-.11.222.558v5.4Z" transform="translate(867.838 704.318)" fill="#c20000"/>
      <path id="Контур_17" data-name="Контур 17" d="M0,0H28.107l2.364,1.795h2.185L30.471,4.673H0Z" transform="translate(843.54 712.47)" fill="#4a4a4a"/>
      <g id="Эллипс_7" data-name="Эллипс 7" transform="translate(866.64 714.338)" fill="#dbdbdb" stroke="#707070" stroke-width="1">
        <circle cx="2.803" cy="2.803" r="2.803" stroke="none"/>
        <circle cx="2.803" cy="2.803" r="2.303" fill="none"/>
      </g>
      <path id="Контур_18" data-name="Контур 18" d="M1.506-4.691l2.245,1.8H20.343l1.577-2.327h5.707L24.81-2.464H23.4l-3.06,7.05H1.506L-1.856,2.919Z" transform="translate(841.659 708.371)" fill="#c20000"/>
      <g id="Эллипс_8" data-name="Эллипс 8" transform="translate(844.211 714.338)" fill="#dbdbdb" stroke="#707070" stroke-width="1">
        <circle cx="2.803" cy="2.803" r="2.803" stroke="none"/>
        <circle cx="2.803" cy="2.803" r="2.303" fill="none"/>
      </g>
      <g id="Эллипс_9" data-name="Эллипс 9" transform="translate(850.753 714.338)" fill="#dbdbdb" stroke="#707070" stroke-width="1">
        <circle cx="2.803" cy="2.803" r="2.803" stroke="none"/>
        <circle cx="2.803" cy="2.803" r="2.303" fill="none"/>
      </g>
      <path id="Контур_19" data-name="Контур 19" d="M0,0H3.733L4.986,3.185H0Z" transform="translate(869.909 705.483)" fill="#fff"/>
    </g>
  </g>
</svg>
